# xmcd
#
# Track frame offsets: 
#        150
#        17900
#        35019
#        51191
#        71399
#        88351
#        104954
#        115599
#        133544
#        148355
#        162523
#        180323
#        195352
#
# Disc length: 2821 seconds
#
# Revision: 0
# Processed by: cddbd v1.5.1PL2 Copyright (c) Steve Scherf et al.
# Submitted via: ExactAudioCopy v0.95a4
#
DISCID=be0b030d
DTITLE=Diamond Rio - Greatest Hits II
DYEAR=2006
DGENRE=Country
TTITLE0=God Only Cries
TTITLE1=Beautiful Mess
TTITLE2=One More Day
TTITLE3=Sweet Summer
TTITLE4=Redneck Love Gone Bad
TTITLE5=Over You
TTITLE6=Unbelievable
TTITLE7=You're Gone
TTITLE8=That's What I Get For Loving You
TTITLE9=Wrinkles
TTITLE10=I Believe
TTITLE11=Meet In the Middle
TTITLE12=In God We Still Trust
EXTD=
EXTT0=
EXTT1=
EXTT2=
EXTT3=
EXTT4=
EXTT5=
EXTT6=
EXTT7=
EXTT8=
EXTT9=
EXTT10=
EXTT11=
EXTT12=
PLAYORDER=
